<?xml version="1.0" encoding="utf-8"?>
<!-- Generator: Adobe Illustrator 27.5.0, SVG Export Plug-In . SVG Version: 6.00 Build 0)  -->
<svg version="1.1" id="Layer_1" xmlns="http://www.w3.org/2000/svg" xmlns:xlink="http://www.w3.org/1999/xlink" x="0px" y="0px"
	 viewBox="0 0 5000 2916" style="enable-background:new 0 0 5000 2916;" xml:space="preserve">
<g>
	<rect x="0.002" y="0" style="fill-rule:evenodd;clip-rule:evenodd;fill:#FF0066;" width="4999.998" height="2916"/>
	<defs>
		<filter id="Adobe_OpacityMaskFilter" filterUnits="userSpaceOnUse" x="0.002" y="719.124" width="4999.998" height="2196.876">
			<feColorMatrix  type="matrix" values="1 0 0 0 0  0 1 0 0 0  0 0 1 0 0  0 0 0 1 0"/>
		</filter>
	</defs>
	<mask maskUnits="userSpaceOnUse" x="0.002" y="719.124" width="4999.998" height="2196.876" id="SVGID_1_">
		<g style="filter:url(#Adobe_OpacityMaskFilter);">
			
				<linearGradient id="SVGID_00000177441852175822377250000001557657061677453246_" gradientUnits="userSpaceOnUse" x1="7917.7231" y1="2520.6455" x2="-2128.8296" y2="3447.5015" gradientTransform="matrix(1 0 0 1 1659.168 -1355.9716)">
				<stop  offset="0" style="stop-color:#FFFFFF"/>
				<stop  offset="1" style="stop-color:#000000"/>
			</linearGradient>
			
				<rect x="0.002" y="719.121" style="fill:url(#SVGID_00000177441852175822377250000001557657061677453246_);" width="4999.998" height="2196.879"/>
		</g>
	</mask>
	<path style="mask:url(#SVGID_1_);fill-rule:evenodd;clip-rule:evenodd;fill:#FFFFFF;" d="M1574.001,1581.386
		C1714.003,2630.304,0.002,2916,0.002,2916H5000V1140.638C3804.652,1908.023,1298.572-482.195,1574.001,1581.386"/>
	<defs>
		
			<filter id="Adobe_OpacityMaskFilter_00000067957991781460072930000008848449598795714191_" filterUnits="userSpaceOnUse" x="0" y="540.688" width="5000" height="2375.313">
			<feColorMatrix  type="matrix" values="1 0 0 0 0  0 1 0 0 0  0 0 1 0 0  0 0 0 1 0"/>
		</filter>
	</defs>
	
		<mask maskUnits="userSpaceOnUse" x="0" y="540.688" width="5000" height="2375.313" id="SVGID_00000158743883101799315390000011812091061383914929_">
		<g style="filter:url(#Adobe_OpacityMaskFilter_00000067957991781460072930000008848449598795714191_);">
			
				<linearGradient id="SVGID_00000081639347895497399080000002002456100272429486_" gradientUnits="userSpaceOnUse" x1="7926.4067" y1="2479.7527" x2="-2132.4922" y2="3338.0073" gradientTransform="matrix(1 0 0 1 1659.1677 -1355.9716)">
				<stop  offset="0" style="stop-color:#FFFFFF"/>
				<stop  offset="1" style="stop-color:#000000"/>
			</linearGradient>
			
				<rect y="540.686" style="fill:url(#SVGID_00000081639347895497399080000002002456100272429486_);" width="5000" height="2375.314"/>
		</g>
	</mask>
	
		<path style="mask:url(#SVGID_00000158743883101799315390000011812091061383914929_);fill-rule:evenodd;clip-rule:evenodd;fill:#FFFFFF;" d="
		M1368.999,1691.459C1363,2758.18,979.365,2337.557,704,2419.872C328.074,2532.252,0,2916,0,2916h5000V1020.664
		C3775.007,1839.907,1383.664-915.654,1368.999,1691.459"/>
	<defs>
		
			<filter id="Adobe_OpacityMaskFilter_00000171691775011467422720000009710932347266322341_" filterUnits="userSpaceOnUse" x="1442.322" y="1838.564" width="3557.678" height="1077.436">
			<feColorMatrix  type="matrix" values="1 0 0 0 0  0 1 0 0 0  0 0 1 0 0  0 0 0 1 0"/>
		</filter>
	</defs>
	
		<mask maskUnits="userSpaceOnUse" x="1442.322" y="1838.564" width="3557.678" height="1077.436" id="SVGID_00000056387325426812180460000008131966887791331253_">
		<g style="filter:url(#Adobe_OpacityMaskFilter_00000171691775011467422720000009710932347266322341_);">
			
				<linearGradient id="SVGID_00000076578123524747649450000013164306471005974178_" gradientUnits="userSpaceOnUse" x1="4039.4912" y1="3573.104" x2="619.0443" y2="3781.9912" gradientTransform="matrix(1 0 0 1 1804.0314 -1355.9716)">
				<stop  offset="0" style="stop-color:#FFFFFF"/>
				<stop  offset="1" style="stop-color:#000000"/>
			</linearGradient>
			
				<rect x="1442.322" y="1838.561" style="fill:url(#SVGID_00000076578123524747649450000013164306471005974178_);" width="3557.676" height="1077.439"/>
		</g>
	</mask>
	
		<path style="mask:url(#SVGID_00000056387325426812180460000008131966887791331253_);fill-rule:evenodd;clip-rule:evenodd;fill:#FFFFFF;" d="
		M3653.999,2070.234c-832,699.276-811.998,407.91-1183.999-116.548S1442.322,2916,1442.322,2916H5000v-438.327
		C5000,2477.673,4486,1370.954,3653.999,2070.234"/>
</g>
</svg>